<?xml version="1.0" encoding="UTF-8"?>
<!DOCTYPE svg PUBLIC "-//W3C//DTD SVG 1.1//EN" "http://www.w3.org/Graphics/SVG/1.1/DTD/svg11.dtd">
<svg xmlns="http://www.w3.org/2000/svg" version="1.1" width="384px" height="384px" style="shape-rendering:geometricPrecision; text-rendering:geometricPrecision; image-rendering:optimizeQuality; fill-rule:evenodd; clip-rule:evenodd" xmlns:xlink="http://www.w3.org/1999/xlink">
<g><path style="opacity:1" fill="#0d8ff3" d="M 381.5,149.5 C 376.926,161.894 372.926,174.561 369.5,187.5C 365.631,199.774 361.964,212.107 358.5,224.5C 355.391,231.499 353.057,238.832 351.5,246.5C 348.391,253.499 346.057,260.832 344.5,268.5C 340.299,281.769 336.299,295.102 332.5,308.5C 329.057,316.498 326.391,324.831 324.5,333.5C 322.261,338.216 320.595,343.216 319.5,348.5C 316.365,359.903 313.032,371.237 309.5,382.5C 230.5,382.5 151.5,382.5 72.5,382.5C 69.2974,372.226 66.2974,361.892 63.5,351.5C 60.8705,341.948 57.8705,332.615 54.5,323.5C 49.8311,307.827 45.1644,292.161 40.5,276.5C 40.4484,273.654 39.4484,271.32 37.5,269.5C 37.5,269.167 37.5,268.833 37.5,268.5C 34.0744,255.561 30.0744,242.894 25.5,230.5C 21.3746,216.122 17.0413,201.789 12.5,187.5C 9.7411,176.562 6.40777,165.895 2.5,155.5C 2.26708,152.458 1.26708,149.792 -0.5,147.5C -0.5,146.833 -0.5,146.167 -0.5,145.5C 56.9834,101.918 114.317,58.0846 171.5,14C 178.011,9.48514 184.511,4.98514 191,0.5C 254.489,48.6525 317.989,96.8191 381.5,145C 382.413,146.414 382.413,147.914 381.5,149.5 Z"/></g>
<g><path style="opacity:0.141" fill="#050d15" d="M 186.5,-0.5 C 189.5,-0.5 192.5,-0.5 195.5,-0.5C 222.314,20.8029 249.314,41.9696 276.5,63C 312.196,89.8423 347.863,116.676 383.5,143.5C 383.5,146.167 383.5,148.833 383.5,151.5C 377.403,168.959 371.57,186.626 366,204.5C 348.272,264.313 330.105,323.979 311.5,383.5C 231.167,383.5 150.833,383.5 70.5,383.5C 65.9899,367.127 61.3233,350.794 56.5,334.5C 58.638,340.247 60.9713,345.914 63.5,351.5C 66.2974,361.892 69.2974,372.226 72.5,382.5C 151.5,382.5 230.5,382.5 309.5,382.5C 313.032,371.237 316.365,359.903 319.5,348.5C 322.14,343.915 323.806,338.915 324.5,333.5C 327.943,325.502 330.609,317.169 332.5,308.5C 336.299,295.102 340.299,281.769 344.5,268.5C 347.609,261.501 349.943,254.168 351.5,246.5C 354.609,239.501 356.943,232.168 358.5,224.5C 361.964,212.107 365.631,199.774 369.5,187.5C 374.478,175.228 378.478,162.562 381.5,149.5C 382.413,147.914 382.413,146.414 381.5,145C 317.989,96.8191 254.489,48.6525 191,0.5C 184.511,4.98514 178.011,9.48514 171.5,14C 114.317,58.0846 56.9834,101.918 -0.5,145.5C -0.5,144.5 -0.5,143.5 -0.5,142.5C 13.3235,132.189 27.3235,122.023 41.5,112C 86.9865,76.7577 132.653,41.7577 178.5,7C 181.432,4.71549 184.098,2.21549 186.5,-0.5 Z"/></g>
<g><path style="opacity:1" fill="#f8fbfa" d="M 278.5,223.5 C 280.41,222.025 281.576,220.025 282,217.5C 282.497,214.854 282.664,212.187 282.5,209.5C 285.363,196.509 283.197,184.509 276,173.5C 268.409,166.078 259.242,162.578 248.5,163C 242.02,161.227 240.187,157.394 243,151.5C 251.167,144.667 259.333,137.833 267.5,131C 291.151,132.637 305.651,145.137 311,168.5C 312.073,178.306 311.406,187.972 309,197.5C 300.384,218.398 292.05,239.398 284,260.5C 282.959,265.44 283.626,270.106 286,274.5C 288.727,277.731 291.894,280.397 295.5,282.5C 296.553,283.438 297.22,284.605 297.5,286C 293.315,300.184 284.315,309.851 270.5,315C 257.434,315.024 249.6,308.524 247,295.5C 245.723,285.059 248.723,276.059 256,268.5C 256.667,267.5 256.667,266.5 256,265.5C 243.828,246.487 231.162,227.821 218,209.5C 211.909,201.205 203.743,196.705 193.5,196C 188.982,189.782 189.982,184.449 196.5,180C 204.188,175.156 211.521,169.823 218.5,164C 225.578,161.58 231.411,163.413 236,169.5C 239,173.5 242,177.5 245,181.5C 254.61,197.594 264.776,213.26 275.5,228.5C 276.763,226.971 277.763,225.305 278.5,223.5 Z"/></g>
<g><path style="opacity:0.643" fill="#053256" d="M 381.5,149.5 C 378.478,162.562 374.478,175.228 369.5,187.5C 372.926,174.561 376.926,161.894 381.5,149.5 Z"/></g>
<g><path style="opacity:0.722" fill="#053154" d="M 2.5,155.5 C 6.40777,165.895 9.7411,176.562 12.5,187.5C 8.18837,177.227 4.85503,166.56 2.5,155.5 Z"/></g>
<g><path style="opacity:1" fill="#b1d9f8" d="M 153.5,159.5 C 147.361,160.897 141.027,161.897 134.5,162.5C 134.918,161.778 135.584,161.278 136.5,161C 142.149,160.243 147.816,159.743 153.5,159.5 Z"/></g>
<g><path style="opacity:1" fill="#f8fbfa" d="M 153.5,159.5 C 175.35,157.532 183.184,167.198 177,188.5C 171.869,197.812 164.036,201.312 153.5,199C 148.572,193.313 145.072,186.813 143,179.5C 139.601,176.271 136.435,172.938 133.5,169.5C 133.448,167.097 133.781,164.764 134.5,162.5C 141.027,161.897 147.361,160.897 153.5,159.5 Z"/></g>
<g><path style="opacity:1" fill="#f8fbfa" d="M 115.5,163.5 C 118.32,163.248 120.986,163.748 123.5,165C 124.108,166.231 124.441,167.564 124.5,169C 121.154,176.863 117.654,184.696 114,192.5C 111.159,207.999 114.993,221.499 125.5,233C 143.418,244.614 159.084,241.947 172.5,225C 180.008,223.859 182.508,227.026 180,234.5C 173.326,256.789 158.159,267.789 134.5,267.5C 100.157,265.99 81.1573,248.157 77.5,214C 79.734,189.272 92.4006,172.439 115.5,163.5 Z"/></g>
<g><path style="opacity:1" fill="#9fd2f8" d="M 134.5,162.5 C 133.781,164.764 133.448,167.097 133.5,169.5C 132.853,168.726 132.52,167.726 132.5,166.5C 132.34,164.645 133.007,163.312 134.5,162.5 Z"/></g>
<g><path style="opacity:1" fill="#bfdff9" d="M 282.5,209.5 C 282.664,212.187 282.497,214.854 282,217.5C 281.576,220.025 280.41,222.025 278.5,223.5C 280.475,218.902 281.809,214.236 282.5,209.5 Z"/></g>
<g><path style="opacity:0.502" fill="#072641" d="M 358.5,224.5 C 356.943,232.168 354.609,239.501 351.5,246.5C 353.057,238.832 355.391,231.499 358.5,224.5 Z"/></g>
<g><path style="opacity:0.584" fill="#053051" d="M 25.5,230.5 C 30.0744,242.894 34.0744,255.561 37.5,268.5C 32.5219,256.228 28.5219,243.562 25.5,230.5 Z"/></g>
<g><path style="opacity:0.612" fill="#053961" d="M 351.5,246.5 C 349.943,254.168 347.609,261.501 344.5,268.5C 346.057,260.832 348.391,253.499 351.5,246.5 Z"/></g>
<g><path style="opacity:1" fill="#075d9e" d="M 37.5,269.5 C 39.4484,271.32 40.4484,273.654 40.5,276.5C 38.9348,274.491 37.9348,272.157 37.5,269.5 Z"/></g>
<g><path style="opacity:0.065" fill="#060d15" d="M -0.5,147.5 C 1.26708,149.792 2.26708,152.458 2.5,155.5C 4.85503,166.56 8.18837,177.227 12.5,187.5C 17.0413,201.789 21.3746,216.122 25.5,230.5C 28.5219,243.562 32.5219,256.228 37.5,268.5C 37.5,268.833 37.5,269.167 37.5,269.5C 37.9348,272.157 38.9348,274.491 40.5,276.5C 45.1644,292.161 49.8311,307.827 54.5,323.5C 55.1667,327.167 55.8333,330.833 56.5,334.5C 37.5,274.5 18.5,214.5 -0.5,154.5C -0.5,152.167 -0.5,149.833 -0.5,147.5 Z"/></g>
<g><path style="opacity:0.518" fill="#052c4b" d="M 332.5,308.5 C 330.609,317.169 327.943,325.502 324.5,333.5C 326.391,324.831 329.057,316.498 332.5,308.5 Z"/></g>
<g><path style="opacity:0.741" fill="#053e6a" d="M 54.5,323.5 C 57.8705,332.615 60.8705,341.948 63.5,351.5C 60.9713,345.914 58.638,340.247 56.5,334.5C 55.8333,330.833 55.1667,327.167 54.5,323.5 Z"/></g>
<g><path style="opacity:0.69" fill="#05416f" d="M 324.5,333.5 C 323.806,338.915 322.14,343.915 319.5,348.5C 320.595,343.216 322.261,338.216 324.5,333.5 Z"/></g>
</svg>
